<svg width="72" height="72" viewBox="0 0 72 72" fill="none" xmlns="http://www.w3.org/2000/svg">
<g clip-path="url(#clip0_2796_46215)">
<path d="M13.8712 6.10974L13.8712 66.7868L19.3873 66.7868L23.9059 71.1997L44.7608 71.1997L49.1742 66.7868L58 66.7868L58 6.10974L13.8712 6.10974Z" fill="#5C9E31"/>
<path d="M13.8712 66.7867L19.3873 66.7867L23.9059 71.1996L44.7608 71.1996L49.1742 66.7867L58 66.7867L58 59.2485" fill="#5C9E31"/>
<path d="M13.8712 31.8512L13.8712 6.10974L58 6.10974L58 59.2486L13.8712 31.8512Z" fill="#B1CC33"/>
<path d="M51.3799 6.10976L51.3799 3.90332L41.4509 3.90332L41.4509 6.10976L51.3799 6.10976Z" fill="#B1CC33"/>
<path d="M24.9033 60.1676L24.9033 29.2774L20.4904 29.2774L20.4904 60.1676L24.9033 60.1676Z" fill="#B1CC33"/>
<path d="M51.3799 60.1675L51.3799 23.7613L46.967 23.7613L46.967 60.1675L51.3799 60.1675Z" fill="#B1CC33"/>
<path d="M51.3807 6.10986L58 6.10986L58 66.7869L49.1742 66.7869L44.7608 71.1998L23.9059 71.1998L19.3873 66.7869L13.8712 66.7869L13.8712 6.10986L41.4517 6.10986" stroke="black" stroke-width="2" stroke-miterlimit="10" stroke-linecap="round" stroke-linejoin="round"/>
<path d="M24.9033 60.1676L24.9033 29.2774L20.4904 29.2774L20.4904 60.1676L24.9033 60.1676Z" stroke="black" stroke-width="2" stroke-miterlimit="10" stroke-linecap="round" stroke-linejoin="round"/>
<path d="M51.3799 60.1675L51.3799 23.7613L46.967 23.7613L46.967 60.1675L51.3799 60.1675Z" stroke="black" stroke-width="2" stroke-miterlimit="10" stroke-linecap="round" stroke-linejoin="round"/>
<path d="M42.5541 17.142L51.3799 17.142L51.3799 2.80017L41.4509 2.80017L41.4509 9.55761" stroke="black" stroke-width="2" stroke-miterlimit="10" stroke-linecap="round" stroke-linejoin="round"/>
<path d="M20.4904 12.7291L20.4904 17.142L24.9033 17.142L24.9033 12.7291" stroke="black" stroke-width="2" stroke-miterlimit="10" stroke-linecap="round" stroke-linejoin="round"/>
</g>
<defs>
<clipPath id="clip0_2796_46215">
<rect width="72" height="72" fill="white"/>
</clipPath>
</defs>
</svg>
