<svg width="72" height="72" viewBox="0 0 72 72" fill="none" xmlns="http://www.w3.org/2000/svg">
<g clip-path="url(#clip0_2712_6586)">
<path d="M0.994141 27.064C0.994141 12.653 12.0729 0.971313 26.669 0.971313C12.8425 17.5314 24.9602 43.8032 57.4355 41.477C62.02 41.1486 67.0721 39.5612 71 37.4633V69.8872C71 70.4889 70.5126 70.9765 69.9112 70.9766L0.994141 71V27.064Z" fill="#92D3F5"/>
<path d="M20.1496 7.47465C16.0331 15.2103 13.7399 30.2435 27.2104 43.4086C27.2104 43.4086 38.2392 57.0403 70.9995 48.6728V36.936C70.9995 36.936 59.0365 45.118 41.3516 39.4561C24.7801 34.1506 20.428 21.6454 20.9839 17.0759C21.1805 15.46 21.8325 10.5648 21.8325 10.5648C21.8325 10.5648 22.736 7.31591 22.4199 6.46852C22.0541 5.48739 20.4444 6.92072 20.1496 7.47465Z" fill="#61B2E4"/>
<path d="M45.0034 7.1625C46.807 9.21722 46.7037 12.251 44.7771 13.9439C42.8506 15.6367 39.8268 15.3431 38.0232 13.2884C38.0232 13.2884 35.7934 10.825 34.7727 3.72294C34.7727 3.72294 34.5024 2.3005 35.827 2.68772C42.7342 4.61753 45.0034 7.1625 45.0034 7.1625Z" fill="#92D3F5"/>
<path d="M34.8281 3.21046C39.5173 2.56471 44.7013 6.862 44.7013 6.862C46.9989 9.47971 46.7036 12.2508 44.7771 13.9435C44.7771 13.9435 43.7023 8.0786 34.8281 3.21046Z" fill="#61B2E4"/>
<path d="M70.9156 48.9532V70.8719H0.994141V27.0344C0.994141 10.9902 11.4594 0.996002 27.036 0.992615" stroke="black" stroke-width="2" stroke-miterlimit="10" stroke-linecap="round" stroke-linejoin="round"/>
<path d="M70.9155 37.6025C66.9314 39.6963 62.8924 41.0916 58.2423 41.4194C25.3027 43.741 13.0118 17.5204 27.0359 0.992615" stroke="black" stroke-width="2" stroke-miterlimit="10" stroke-linecap="round" stroke-linejoin="round"/>
<path d="M70.914 48.9532C65.6335 51.8893 58.6231 52.6366 50.1388 52.2174C11.908 48.6578 9.05677 12.3409 27.0344 0.992615" stroke="black" stroke-width="2" stroke-miterlimit="10" stroke-linecap="round" stroke-linejoin="round"/>
<path d="M45.6324 7.24778C47.4618 9.33078 47.357 12.4063 45.4029 14.1225C43.4488 15.8386 40.3818 15.541 38.5525 13.458C38.5525 13.458 36.2907 10.9607 35.2554 3.76088C35.2554 3.76088 34.9813 2.31886 36.3248 2.7114C43.3307 4.66778 45.6324 7.24778 45.6324 7.24778Z" stroke="black" stroke-width="1.9" stroke-miterlimit="10" stroke-linecap="round" stroke-linejoin="round"/>
<path d="M66.4093 65.758C62.6687 65.758 62.6687 63.5129 58.9282 63.5129C55.1897 63.5129 55.1897 65.758 51.4512 65.758C47.7094 65.758 47.7094 63.5129 43.9676 63.5129C40.2233 63.5129 40.2233 65.758 36.4789 65.758C32.7345 65.758 32.7346 63.5129 28.9902 63.5129" stroke="black" stroke-width="2" stroke-miterlimit="10" stroke-linecap="round" stroke-linejoin="round"/>
</g>
<defs>
<clipPath id="clip0_2712_6586">
<rect width="72" height="72" fill="white"/>
</clipPath>
</defs>
</svg>
