<svg width="72" height="72" viewBox="0 0 72 72" fill="none" xmlns="http://www.w3.org/2000/svg">
<g clip-path="url(#clip0_2712_6586)">
<path d="M0.994141 27.4232C0.994141 12.8138 12.2313 0.971313 27.0361 0.971313C13.0119 17.7594 25.3028 44.3928 58.2424 42.0346C62.8925 41.7017 68.0167 40.0924 72.0008 37.9656V70.8358C72.0008 71.4457 71.5065 71.9401 70.8965 71.9402L0.994141 71.9639V27.4232Z" fill="#92D3F5"/>
<path d="M20.4237 7.56416C16.2484 15.4063 13.9224 30.6464 27.5855 43.9927C27.5855 43.9927 38.772 57.812 72.0006 49.3294V37.431C72.0006 37.431 59.8666 45.7257 41.9288 39.9858C25.1204 34.6073 20.7061 21.93 21.27 17.2976C21.4693 15.6594 22.1306 10.6969 22.1306 10.6969C22.1306 10.6969 23.0471 7.40323 22.7265 6.54418C22.3555 5.54954 20.7227 7.0026 20.4237 7.56416Z" fill="#61B2E4"/>
<path d="M45.6324 7.24772C47.4618 9.33072 47.357 12.4063 45.4029 14.1224C43.4488 15.8386 40.3818 15.541 38.5525 13.4579C38.5525 13.4579 36.2907 10.9607 35.2554 3.76082C35.2554 3.76082 34.9813 2.3188 36.3248 2.71134C43.3307 4.66772 45.6324 7.24772 45.6324 7.24772Z" fill="#92D3F5"/>
<path d="M35.3105 3.24128C40.0667 2.58664 45.3248 6.94308 45.3248 6.94308C47.6553 9.59682 47.3558 12.406 45.4018 14.122C45.4018 14.122 44.3116 8.17643 35.3105 3.24128Z" fill="#61B2E4"/>
<path d="M70.9156 48.9532V70.8719H0.994141V27.0344C0.994141 10.9902 11.4594 0.996002 27.036 0.992615" stroke="black" stroke-width="2" stroke-miterlimit="10" stroke-linecap="round" stroke-linejoin="round"/>
<path d="M70.9155 37.6025C66.9314 39.6963 62.8924 41.0916 58.2423 41.4194C25.3027 43.741 13.0118 17.5204 27.0359 0.992615" stroke="black" stroke-width="2" stroke-miterlimit="10" stroke-linecap="round" stroke-linejoin="round"/>
<path d="M70.914 48.9532C65.6335 51.8893 58.6231 52.6366 50.1388 52.2174C11.908 48.6578 9.05677 12.3409 27.0344 0.992615" stroke="black" stroke-width="2" stroke-miterlimit="10" stroke-linecap="round" stroke-linejoin="round"/>
<path d="M45.6324 7.24778C47.4618 9.33078 47.357 12.4063 45.4029 14.1225C43.4488 15.8386 40.3818 15.541 38.5525 13.458C38.5525 13.458 36.2907 10.9607 35.2554 3.76088C35.2554 3.76088 34.9813 2.31886 36.3248 2.7114C43.3307 4.66778 45.6324 7.24778 45.6324 7.24778Z" stroke="black" stroke-width="1.9" stroke-miterlimit="10" stroke-linecap="round" stroke-linejoin="round"/>
<path d="M66.4093 65.758C62.6687 65.758 62.6687 63.5129 58.9282 63.5129C55.1897 63.5129 55.1897 65.758 51.4512 65.758C47.7094 65.758 47.7094 63.5129 43.9676 63.5129C40.2233 63.5129 40.2233 65.758 36.4789 65.758C32.7345 65.758 32.7346 63.5129 28.9902 63.5129" stroke="black" stroke-width="2" stroke-miterlimit="10" stroke-linecap="round" stroke-linejoin="round"/>
</g>
<defs>
<clipPath id="clip0_2712_6586">
<rect width="72" height="72" fill="white"/>
</clipPath>
</defs>
</svg>
