<svg fill="none" height="32" viewBox="0 0 14 32" width="14" xmlns="http://www.w3.org/2000/svg"><path d="m10.6721 1.60005c.3314-.44181.2419-1.068613-.1999-1.400013-.4418-.331398-1.0686-.2418939-1.4.199913zm-1.11643 30.34865c.52393.1746 1.09023-.1086 1.26483-.6326l2.8453-8.5384c.1746-.5239-.1086-1.0902-.6326-1.2648-.5239-.1746-1.0902.1086-1.2648.6326l-2.52916 7.5896-7.58969-2.5291c-.52396-.1746-1.090256.1086-1.264857.6326-.174601.5239.10861 1.0902.632567 1.2648zm-.48347-31.54875c-3.18739 4.24929-4.26779 9.88255-4.04381 15.45275.22438 5.5802 1.76069 11.2189 3.94903 15.5946l1.78878-.8946c-2.06261-4.1243-3.52652-9.4856-3.73942-14.7804-.21331-5.3048.83195-10.42154 3.64532-14.17225z" fill="#000"/></svg>