<svg fill="none" height="32" viewBox="0 0 32 32" width="32" xmlns="http://www.w3.org/2000/svg" xmlns:xlink="http://www.w3.org/1999/xlink"><clipPath id="a"><path d="m0 0h32v32h-32z"/></clipPath><g clip-path="url(#a)"><path d="m0 0h32v32h-32z" fill="#f3f3f3"/><path d="m20.5568 11c-.0757-.947-.4309-1.68561-1.0653-2.21591-.625-.5303-1.5767-.79545-2.8551-.79545-.8144 0-1.482.09943-2.0029.29829-.5113.1894-.8901.44981-1.1363.78125-.2463.33144-.3741.71023-.3836 1.13632-.0189.3504.0427.6677.1847.9517.1515.2747.3883.5256.7102.7529.322.2178.7339.4167 1.2358.5966s1.0985.3409 1.7898.4829l2.3864.5114c1.6098.3409 2.9876.7907 4.1335 1.3494 1.1458.5587 2.0833 1.2169 2.8125 1.9745.7291.7481 1.2642 1.5909 1.6051 2.5284.3504.9375.5303 1.9602.5398 3.0682-.0095 1.9128-.4877 3.5322-1.4347 4.8579-.947 1.3258-2.3011 2.3343-4.0625 3.0256-1.7519.6913-3.8589 1.0369-6.321 1.0369-2.5284 0-4.7349-.374-6.6193-1.1221-1.87504-.7482-3.33337-1.8987-4.37504-3.4518-1.03219-1.5625-1.55303-3.5606-1.5625-5.9943h7.50004c.0473.8902.2699 1.6383.6676 2.2443.3977.6061.9564 1.0654 1.6761 1.3779.7292.3125 1.5957.4687 2.5994.4687.8428 0 1.5483-.1041 2.1165-.3125.5682-.2083.9991-.4971 1.2926-.8664.2936-.3694.4451-.7908.4546-1.2642-.0095-.4451-.1563-.8334-.4404-1.1648-.2746-.3409-.7291-.644-1.3636-.9091-.6345-.2746-1.4915-.5303-2.571-.7671l-2.8977-.625c-2.5758-.5587-4.60705-1.4914-6.0938-2.7983-1.47727-1.3162-2.21117-3.1107-2.2017-5.3835-.00947-1.84656.48295-3.46115 1.47727-4.84372 1.00379-1.39205 2.3911-2.47633 4.16193-3.25284 1.7803-.77652 3.821-1.16478 6.1222-1.16478 2.3484 0 4.3797.393 6.0937 1.17898 1.714.78599 3.0351 1.89394 3.9631 3.32386.9375 1.42046 1.411 3.08239 1.4204 4.9858z" fill="#000"/></g></svg>