<svg width="72" height="72" viewBox="0 0 72 72" fill="none" xmlns="http://www.w3.org/2000/svg">
<path d="M18.9396 70.3155H16.3525C15.6054 70.3154 14.9999 69.6835 15 68.9043C15 68.7569 15.0223 68.6104 15.0658 68.4701L35.3894 2.97715C35.5695 2.39474 36.0894 2 36.6762 2H39.2647C40.0118 2 40.6174 2.63185 40.6174 3.4111C40.6174 3.55851 40.5951 3.70512 40.5516 3.84545L20.2264 69.3384C20.0462 69.9208 19.5264 70.3156 18.9396 70.3155Z" fill="#6A462F"/>
<path d="M36.3215 70.3155H33.7344C32.9872 70.3154 32.3817 69.6835 32.3818 68.9043C32.3818 68.7569 32.4041 68.6104 32.4476 68.4701L52.7713 2.97715C52.9515 2.39474 53.4713 1.99987 54.0581 2H56.6464C57.3936 2.00013 57.9991 2.63198 57.999 3.41123C57.999 3.55864 57.9767 3.70512 57.9332 3.84545L37.6083 69.3384C37.4282 69.9209 36.9083 70.3156 36.3215 70.3155Z" fill="#A57939"/>
<path d="M51.2186 13.4564H33.8451C33.1507 13.4564 32.5878 12.8692 32.5879 12.1449C32.5879 11.9856 32.6157 11.8277 32.67 11.6789L33.4731 9.47858C33.6586 8.96961 34.1265 8.63323 34.6485 8.63336H52.0216C52.716 8.63336 53.2789 9.22062 53.2788 9.94492C53.2788 10.1043 53.251 10.2622 53.1967 10.411L52.3936 12.6112C52.208 13.12 51.7405 13.4563 51.2186 13.4564Z" fill="#A57939"/>
<path d="M46.4388 28.72H29.0657C28.3713 28.72 27.8085 28.1326 27.8086 27.4083C27.8086 27.2491 27.8365 27.0912 27.8907 26.9424L28.6936 24.7422C28.8791 24.2334 29.3468 23.8969 29.8687 23.8969H47.2419C47.9363 23.8969 48.4992 24.4841 48.4991 25.2084C48.4991 25.3678 48.4713 25.5257 48.417 25.6745L47.6139 27.8747C47.4285 28.3835 46.9607 28.72 46.4388 28.72Z" fill="#A57939"/>
<path d="M41.7846 44.042H24.4115C23.7171 44.042 23.1542 43.4547 23.1543 42.7304C23.1543 42.5711 23.1821 42.4132 23.2364 42.2643L24.0395 40.0642C24.2249 39.5553 24.6926 39.2188 25.2146 39.2188H42.5877C43.2821 39.2188 43.8449 39.8062 43.8448 40.5305C43.8448 40.6897 43.8169 40.8476 43.7627 40.9965L42.9598 43.1968C42.774 43.7055 42.3066 44.0417 41.7846 44.042Z" fill="#A57939"/>
<path d="M37.0257 59.3239H19.6526C18.9582 59.3239 18.3954 58.7365 18.3955 58.0122C18.3955 57.853 18.4234 57.6951 18.4776 57.5462L19.2805 55.346C19.466 54.8372 19.9337 54.5007 20.4557 54.5007H37.8288C38.5232 54.5007 39.0861 55.0879 39.086 55.8122C39.086 55.9716 39.0582 56.1295 39.0039 56.2783L38.2008 58.4785C38.0154 58.9873 37.5477 59.3239 37.0257 59.3239Z" fill="#A57939"/>
<path d="M14.9355 68.9045L35.9511 3.41071" stroke="black" stroke-width="2" stroke-linecap="round" stroke-linejoin="round"/>
<path d="M32.8994 68.9045L53.915 3.41071" stroke="black" stroke-width="2" stroke-linecap="round" stroke-linejoin="round"/>
<path d="M33.8545 9.94482H51.8186" stroke="black" stroke-width="2" stroke-linecap="round" stroke-linejoin="round"/>
<path d="M28.9492 25.2334H46.9133" stroke="black" stroke-width="2" stroke-linecap="round" stroke-linejoin="round"/>
<path d="M37.1009 55.8107H19.1367" stroke="black" stroke-width="2" stroke-linecap="round" stroke-linejoin="round"/>
<path d="M24.043 40.5222H42.007" stroke="black" stroke-width="2" stroke-linecap="round" stroke-linejoin="round"/>
</svg>
