<svg width="72" height="72" viewBox="0 0 72 72" fill="none" xmlns="http://www.w3.org/2000/svg">
<path d="M55 6H3V71H55V6Z" fill="white"/>
<path d="M34.5049 44.4892L49.5755 29.4186L57.0894 39.3341L43.0783 53.3605" fill="#F4AA41"/>
<path d="M31.8516 53.2909L34.4676 45.7536L43.08 54.3657L35.5425 56.9819" fill="#A57939"/>
<path d="M55.042 24.9505L60.351 19.6415L69.3382 28.4263L64.0743 33.6903" fill="#EA5A47"/>
<path d="M48.6016 30.3939L54.7497 24.2458L63.6659 33.238L57.5698 39.334" fill="#D0CFCE"/>
<path d="M32.0216 53.788L35.2057 56.9721L30.583 58.6793L32.0216 53.788Z" fill="black"/>
<path d="M11.0068 17.3379H47.0353" stroke="black" stroke-width="2" stroke-linecap="round" stroke-linejoin="round"/>
<path d="M11.0068 28.0129H45.1671" stroke="black" stroke-width="2" stroke-linecap="round" stroke-linejoin="round"/>
<path d="M11.0068 38.688H33.8378" stroke="black" stroke-width="2" stroke-linecap="round" stroke-linejoin="round"/>
<path d="M11.0068 49.3632H27.2956" stroke="black" stroke-width="2" stroke-linecap="round" stroke-linejoin="round"/>
<path d="M11.0068 60.0383H24.5455" stroke="black" stroke-width="2" stroke-linecap="round" stroke-linejoin="round"/>
<path d="M32.0216 53.788L35.2057 56.9721L30.583 58.6793L32.0216 53.788Z" fill="black"/>
<path d="M35.5199 56.9905L43.0782 54.3658L63.8812 33.5627L55.2689 24.9504L34.4658 45.7537L31.832 53.321L35.5199 56.9905Z" stroke="black" stroke-width="2" stroke-linecap="round" stroke-linejoin="round"/>
<path d="M58.7285 21.4896L60.8042 19.4141L69.4164 28.0263L67.239 30.2038" stroke="black" stroke-width="2" stroke-linecap="round" stroke-linejoin="round"/>
<path d="M34.9678 45.2509L43.58 53.8631" stroke="black" stroke-width="2" stroke-linecap="round" stroke-linejoin="round"/>
<path d="M31.8376 53.3032L29.9922 58.8397L35.5408 56.982" stroke="black" stroke-width="2" stroke-linecap="round" stroke-linejoin="round"/>
<path d="M49.6777 31.0583L57.5403 38.921" stroke="black" stroke-width="2" stroke-linecap="round" stroke-linejoin="round"/>
<path d="M55.0411 49.8342V70.7134H3V6.66278H55.0411V17.9462" stroke="black" stroke-width="2.0206" stroke-linecap="round" stroke-linejoin="round"/>
</svg>
