<svg width="72" height="72" viewBox="0 0 72 72" fill="none" xmlns="http://www.w3.org/2000/svg">
<path d="M57.1333 41.4925H57.9823C59.318 41.4925 60.4109 40.3996 60.4109 39.0639V32.8053C60.4109 31.4696 59.318 30.3768 57.9823 30.3768H57.1334H52.2812V41.5055L57.1333 41.4925Z" fill="#9B9B9A" stroke="#9B9B9A" stroke-width="2" stroke-miterlimit="10"/>
<path d="M21.9258 17.7857V3.21429C21.9258 2.54364 22.4694 2 23.1401 2H47.4258C48.0964 2 48.6401 2.54364 48.6401 3.21429V17.7857" fill="#9B9B9A"/>
<path d="M48.6401 54.2142V68.7857C48.6401 69.4563 48.0964 69.9999 47.4258 69.9999H23.1401C22.4694 69.9999 21.9258 69.4563 21.9258 68.7857V54.2142" fill="#9B9B9A"/>
<path d="M48.6401 54.2142V68.7857C48.6401 69.4563 48.0964 69.9999 47.4258 69.9999H23.1401C22.4694 69.9999 21.9258 69.4563 21.9258 68.7857V54.2142" stroke="#9B9B9A" stroke-width="2" stroke-miterlimit="10"/>
<path d="M49.8527 54.2143H20.7098C19.3741 54.2143 18.2812 53.1215 18.2812 51.7858V20.2143C18.2812 18.8786 19.3741 17.7858 20.7098 17.7858H49.8527C51.1884 17.7858 52.2813 18.8786 52.2813 20.2143V51.7858C52.2813 53.1215 51.1884 54.2143 49.8527 54.2143Z" fill="#D0CFCE" stroke="#D0CFCE" stroke-width="2" stroke-miterlimit="10"/>
<path d="M21.9258 17.7857V3.21429C21.9258 2.54364 22.4694 2 23.1401 2H47.4258C48.0964 2 48.6401 2.54364 48.6401 3.21429V17.7857" stroke="black" stroke-width="2" stroke-miterlimit="10"/>
<path d="M35.0898 24.0848V36.2277H45.1825" stroke="black" stroke-width="2" stroke-miterlimit="10" stroke-linecap="round" stroke-linejoin="round"/>
<path d="M48.6401 59.0711V70H21.9258V59.0711" stroke="black" stroke-width="2" stroke-miterlimit="10" stroke-linecap="round" stroke-linejoin="round"/>
<path d="M21.9258 12.9289V2H48.6401V12.9289" stroke="black" stroke-width="2" stroke-miterlimit="10" stroke-linecap="round" stroke-linejoin="round"/>
<path d="M57.1329 30.3768H57.9818C59.3176 30.3768 60.4104 31.4696 60.4104 32.8053V39.0639C60.4104 40.3996 59.3176 41.4925 57.9818 41.4925H57.1328" stroke="black" stroke-width="2" stroke-miterlimit="10" stroke-linecap="round" stroke-linejoin="round"/>
<path d="M49.8527 54.2143H20.7098C19.3741 54.2143 18.2812 53.1215 18.2812 51.7858V20.2143C18.2812 18.8786 19.3741 17.7858 20.7098 17.7858H49.8527C51.1884 17.7858 52.2813 18.8786 52.2813 20.2143V51.7858C52.2813 53.1215 51.1884 54.2143 49.8527 54.2143Z" stroke="black" stroke-width="2" stroke-miterlimit="10" stroke-linecap="round" stroke-linejoin="round"/>
<path d="M35.0898 24.0848V36.2277H45.1825" stroke="black" stroke-width="2" stroke-miterlimit="10" stroke-linecap="round" stroke-linejoin="round"/>
</svg>
