<svg width="72" height="72" viewBox="0 0 72 72" fill="none" xmlns="http://www.w3.org/2000/svg">
<path d="M13.9629 15.7257L13.5667 18.1913C13.4347 18.7981 11.9747 19.5593 11.3717 19.7075L10.1584 20.0059C9.84804 20.0823 9.56707 20.2483 9.35053 20.4833L7.94591 22.008C7.68166 22.295 7.32305 22.4773 6.93544 22.5218L2.48575 23.2628C1.80442 23.3411 2.4039 26.0994 2.4039 26.0994C2.62419 26.4681 3.60425 27.423 4.02039 27.5294L10.9719 28.9882C11.6361 29.158 11.6624 31.076 11.7281 31.7584L12.1508 42.1634L12.1565 42.2198L12.7933 46.1495C12.8605 46.5646 13.0859 46.9375 13.4222 47.19L18.2631 50.8254C18.5314 51.0267 18.7307 51.3062 18.834 51.6251L20.1518 53.6914C20.8061 55.7131 20.8873 59.4191 20.6629 61.5321L20.025 67.758C20.0397 68.5933 20.4088 69.4172 21.106 69.8775C21.2101 69.9461 21.3612 69.9884 21.5401 70.0105C22.7666 70.1618 23.9242 69.3884 24.4163 68.2548L26.1777 64.1967L26.2347 64.0214L28.3155 54.7232C28.5164 53.8254 29.4213 53.2728 30.3117 53.504C31.8394 53.9007 33.4274 54.011 34.9953 53.8293L41.3306 53.0951C41.4109 53.0858 41.4904 53.0706 41.5684 53.0494L49.8393 50.8102C50.4795 50.6369 51.1608 50.8696 51.5611 51.3983L54.3364 55.0631L57.1664 58.9156C57.559 59.4501 57.7882 60.087 57.8262 60.7491L58.7573 66.99C58.89 69.5481 60.8211 70.2626 61.8186 70.1747C61.8186 70.1747 63.673 70.199 63.8459 67.5631L63.6132 60.5756C63.6428 59.6593 63.5154 58.7446 63.2366 57.8711L62.0777 54.2416C61.6187 52.8037 61.527 51.2739 61.8111 49.7916L62.5222 46.0814C62.7637 44.8209 62.7129 43.5219 62.3734 42.2841L62.1682 41.5359C61.9049 40.5757 61.9328 39.5598 62.2448 38.6143C62.4737 37.9206 62.7499 37.2154 62.9562 37.0128C63.5145 36.4641 68.5722 32.9137 69.3259 26.2286C70.9009 12.2586 50.4192 10.116 54.2542 13.2734L55.7911 13.6491C62.3154 16.2076 63.3276 19.0634 63.3276 19.0634C65.5594 23.2801 62.9372 28.5466 61.5503 30.0041L61.2834 30.2845C60.6924 30.9056 59.9724 31.3855 59.1711 31.6908C57.9758 32.1462 56.3114 32.773 56.1701 32.7859C55.9477 32.8065 52.2448 32.3504 51.7479 32.275C51.2509 32.1996 42.7865 32.0133 42.4942 32.0111C42.2497 32.0093 31.032 31.9246 27.3787 31.897C26.6933 31.8918 26.0901 31.4576 25.8622 30.8111L24.2614 26.2686C24.2076 26.116 24.1314 25.9723 24.0352 25.8422L22.201 22.8934C22.0975 22.7533 22.0086 22.6284 21.8662 22.5281L20.8008 21.6148C20.5345 21.4273 18.9609 20.6666 18.8459 20.362L17.7531 17.468C17.7324 17.4131 17.7088 17.3596 17.6824 17.3073L16.8202 15.6057C16.5528 15.0779 16.1067 14.6622 15.5613 14.4326L15.4334 14.3787C14.4953 13.9837 14.1793 14.7312 13.9629 15.7257Z" fill="#F4AA41"/>
<path d="M46.2775 51.5858L46.9857 53.6922C47.2236 54.3998 47.6836 55.0116 48.2973 55.4366L50.7663 57.1463C51.7397 57.8203 53.3442 58.2887 53.2987 59.4719L52.6033 64.2019C52.467 65.1292 52.3916 66.0661 52.3773 67.0033C52.3716 67.382 52.3673 67.6856 52.3673 67.6856C52.6016 69.164 53.7587 70.3249 55.2364 70.5638C56.2775 70.7321 57.3618 70.4431 58.1192 69.709C58.6952 69.1506 59.278 68.3229 59.6026 67.1197C59.6992 66.7619 59.7091 66.3863 59.6739 66.0172C59.5356 64.5649 59.1603 60.6238 58.9674 58.6C58.8911 57.7981 58.5382 57.0527 57.9687 56.4832L55.0661 53.5806C54.8612 53.3757 54.6826 53.1457 54.5349 52.8963L53.2952 50.8029C52.426 49.3352 50.6178 48.7184 49.0329 49.3491L46.9252 50.1877C46.3722 50.4078 46.0877 51.0216 46.2775 51.5858Z" fill="#E27022"/>
<path d="M13.6489 44.3096C13.0972 45.0756 11.0636 47.9254 9.60068 50.0086C8.43096 51.6744 7.41406 54.8274 7.41406 56.0838C7.41406 57.5504 7.43324 58.9321 7.88375 59.7766C8.50392 60.939 9.30217 62.3151 9.90398 62.8561C10.4456 63.343 11.0199 63.6647 11.718 63.872C12.0167 63.9607 12.6507 64.0006 13.1917 64.0185C13.7817 64.038 14.3651 63.9042 14.8905 63.6351L15.2353 63.4584C15.4033 63.3724 15.6313 63.1607 15.8598 62.9179C16.6226 62.107 16.9973 60.9684 16.7533 59.8821C16.599 59.1951 16.2262 58.5676 15.4028 58.4655C13.2004 58.1923 13.0005 57.0231 13.4614 55.6033C13.4508 55.548 13.4729 55.4915 13.5181 55.4579L16.8238 53.0149C18.5777 51.7188 18.8077 49.1826 17.3156 47.592C17.2905 47.5653 17.2618 47.5419 17.2305 47.5227L15.8365 46.6663C15.0503 46.4111 13.9427 45.8022 13.9054 44.3933C13.9018 44.2566 13.7287 44.1986 13.6489 44.3096Z" fill="#E27022"/>
<path d="M62.7414 39.7765C63.521 41.7618 63.736 43.2419 63.3446 45.0394L62.0208 51.1205L64.3004 58.2609C64.3004 58.2609 64.4414 63.838 64.302 67.9407C64.2589 69.2116 63.1919 70.2502 61.9201 70.2501H61.5073C59.933 70.2501 59.2558 68.701 59.2558 67.1268L58.2593 57.3152C58.2593 57.3152 49.5008 50.9233 50.708 41.4085" stroke="black" stroke-width="2" stroke-linecap="round" stroke-linejoin="round"/>
<path d="M33.334 52.151C37.8161 51.9111 46.4699 52.151 50.8546 49.0087" stroke="black" stroke-width="2" stroke-linecap="round" stroke-linejoin="round"/>
<path d="M54.5102 13.2735C61.2454 15.0809 63.9514 18.2898 64.6235 21.6976C65.8386 27.8584 59.9325 33.1539 53.8385 31.639C50.8853 30.905 48.4029 31.1212 48.4029 31.1212L26.8863 30.9584C24.9132 21.4582 19.3478 19.7745 19.3478 19.7745C18.499 14.3202 15.5332 13.442 14.6001 13.3006C14.4439 13.277 14.301 13.3829 14.2784 13.5393L13.6527 17.8683C13.561 18.5021 13.0712 19.0047 12.4399 19.1125L11.7501 19.2304C10.8569 19.3829 10.0281 19.7942 9.36642 20.4133L8.32111 21.3912C7.95561 21.7333 7.48873 21.9471 6.99098 22.0007L2.94748 22.4356C2.05733 22.5314 1.80267 24.9189 2.14865 25.7447L2.88597 26.741C3.22459 27.5493 3.94567 28.1343 4.80647 28.2991L12.3681 29.1559C12.3681 29.1559 11.1989 44.551 15.5592 46.8895C25.0663 51.9883 20.7122 66.2074 20.7122 66.2074C19.7515 67.8867 20.4938 70.2502 22.4286 70.2502H22.4303C23.3586 70.2502 24.2117 69.7396 24.6504 68.9215L27.1056 62.5283L28.716 51.8357C28.8424 50.9964 28.6734 50.1488 28.2889 49.3922C27.6154 48.0671 26.8227 45.4627 28.1287 41.7619" stroke="black" stroke-width="2" stroke-linecap="round" stroke-linejoin="round"/>
<path d="M13.1295 44.9023L8.0415 52.6836C7.66593 53.2328 7.45173 53.888 7.43442 54.5763C7.38298 56.6287 7.13661 61.0556 10.9411 63.5678C11.9402 64.2275 13.8226 64.3149 14.8161 63.6981C15.6551 63.1772 16.3394 62.1885 15.721 60.3173" stroke="black" stroke-width="2" stroke-linecap="round" stroke-linejoin="round"/>
<path d="M18.1552 50.9077L13 54.5087" stroke="black" stroke-width="2" stroke-linecap="round" stroke-linejoin="round"/>
<path d="M48.4199 54.5087C48.9261 56.3408 52.0179 58.02 53.3892 58.8742C53.3892 58.8742 52.2952 65.1206 52.1384 67.226C52.0818 67.9866 52.3569 68.7238 52.8289 69.2513C54.0713 70.6398 55.6703 70.0292 55.6703 70.0292" stroke="black" stroke-width="2" stroke-linecap="round" stroke-linejoin="round"/>
</svg>
