<svg width="72" height="72" viewBox="0 0 72 72" fill="none" xmlns="http://www.w3.org/2000/svg">
<g clip-path="url(#clip0_2712_6694)">
<path d="M13.9629 16.7257L13.5667 19.1913C13.4347 19.7981 11.9747 20.5593 11.3717 20.7075L10.1584 21.0059C9.84804 21.0823 9.56707 21.2483 9.35053 21.4833L7.94591 23.008C7.68166 23.295 7.32305 23.4773 6.93544 23.5218L2.48575 24.2628C1.80442 24.3411 2.4039 27.0994 2.4039 27.0994C2.62419 27.4681 3.60425 28.423 4.02039 28.5294L10.9719 29.9882C11.6361 30.158 11.6624 32.076 11.7281 32.7584L12.1508 43.1634L12.1565 43.2198L12.7933 47.1495C12.8605 47.5646 13.0859 47.9375 13.4222 48.19L18.2631 51.8254C18.5314 52.0267 18.7307 52.3062 18.834 52.6251L20.1518 54.6914C20.8061 56.7131 20.8873 60.4191 20.6629 62.5321L20.025 68.758C20.0397 69.5933 20.4088 70.4172 21.106 70.8775C21.2101 70.9461 21.3612 70.9884 21.5401 71.0105C22.7666 71.1618 23.9242 70.3884 24.4163 69.2548L26.1777 65.1967L26.2347 65.0214L28.3155 55.7232C28.5164 54.8254 29.4213 54.2728 30.3117 54.504C31.8394 54.9007 33.4274 55.011 34.9953 54.8293L41.3306 54.0951C41.4109 54.0858 41.4904 54.0706 41.5684 54.0494L49.8393 51.8102C50.4795 51.6369 51.1608 51.8696 51.5611 52.3983L54.3364 56.0631L57.1664 59.9156C57.559 60.4501 57.7882 61.087 57.8262 61.7491L58.7573 67.99C58.89 70.5481 60.8211 71.2626 61.8186 71.1747C61.8186 71.1747 63.673 71.199 63.8459 68.5631L63.6132 61.5756C63.6428 60.6593 63.5154 59.7446 63.2366 58.8711L62.0777 55.2416C61.6187 53.8037 61.527 52.2739 61.8111 50.7916L62.5222 47.0814C62.7637 45.8209 62.7129 44.5219 62.3734 43.2841L62.1682 42.5359C61.9049 41.5757 61.9328 40.5598 62.2448 39.6143C62.4737 38.9206 62.7499 38.2154 62.9562 38.0128C63.5145 37.4641 68.5722 33.9137 69.3259 27.2286C70.9009 13.2586 50.4192 11.116 54.2542 14.2734L55.7911 14.6491C62.3154 17.2076 63.3276 20.0634 63.3276 20.0634C65.5594 24.2801 62.9372 29.5466 61.5503 31.0041L61.2834 31.2845C60.6924 31.9056 59.9724 32.3855 59.1711 32.6908C57.9758 33.1462 56.3114 33.773 56.1701 33.7859C55.9477 33.8065 52.2448 33.3504 51.7479 33.275C51.2509 33.1996 42.7865 33.0133 42.4942 33.0111C42.2497 33.0093 31.032 32.9246 27.3787 32.897C26.6933 32.8918 26.0901 32.4576 25.8622 31.8111L24.2614 27.2686C24.2076 27.116 24.1314 26.9723 24.0352 26.8422L22.201 23.8934C22.0975 23.7533 22.0086 23.6284 21.8662 23.5281L20.8008 22.6148C20.5345 22.4273 18.9609 21.6666 18.8459 21.362L17.7531 18.468C17.7324 18.4131 17.7088 18.3596 17.6824 18.3073L16.8202 16.6057C16.5528 16.0779 16.1067 15.6622 15.5613 15.4326L15.4334 15.3787C14.4953 14.9837 14.1793 15.7312 13.9629 16.7257Z" fill="#F4AA41"/>
<path d="M46.2775 52.5858L46.9857 54.6922C47.2236 55.3998 47.6836 56.0116 48.2973 56.4366L50.7663 58.1463C51.7397 58.8203 53.3442 59.2887 53.2987 60.4719L52.6033 65.2019C52.467 66.1292 52.3916 67.0661 52.3773 68.0033C52.3716 68.382 52.3673 68.6856 52.3673 68.6856C52.6016 70.164 53.7587 71.3249 55.2364 71.5638C56.2775 71.7321 57.3618 71.4431 58.1192 70.709C58.6952 70.1506 59.278 69.3229 59.6026 68.1197C59.6992 67.7619 59.7091 67.3863 59.6739 67.0172C59.5356 65.5649 59.1603 61.6238 58.9674 59.6C58.8911 58.7981 58.5382 58.0527 57.9687 57.4832L55.0661 54.5806C54.8612 54.3757 54.6826 54.1457 54.5349 53.8963L53.2952 51.8029C52.426 50.3352 50.6178 49.7184 49.0329 50.3491L46.9252 51.1877C46.3722 51.4078 46.0877 52.0216 46.2775 52.5858Z" fill="#E27022"/>
<path d="M13.6489 45.3096C13.0972 46.0756 11.0636 48.9254 9.60068 51.0086C8.43096 52.6744 7.41406 55.8274 7.41406 57.0838C7.41406 58.5504 7.43324 59.9321 7.88375 60.7766C8.50392 61.939 9.30217 63.3151 9.90398 63.8561C10.4456 64.343 11.0199 64.6647 11.718 64.872C12.0167 64.9607 12.6507 65.0006 13.1917 65.0185C13.7817 65.038 14.3651 64.9042 14.8905 64.6351L15.2353 64.4584C15.4033 64.3724 15.6313 64.1607 15.8598 63.9179C16.6226 63.107 16.9973 61.9684 16.7533 60.8821C16.599 60.1951 16.2262 59.5676 15.4028 59.4655C13.2004 59.1923 13.0005 58.0231 13.4614 56.6033C13.4508 56.548 13.4729 56.4915 13.5181 56.4579L16.8238 54.0149C18.5777 52.7188 18.8077 50.1826 17.3156 48.592C17.2905 48.5653 17.2618 48.5419 17.2305 48.5227L15.8365 47.6663C15.0503 47.4111 13.9427 46.8022 13.9054 45.3933C13.9018 45.2566 13.7287 45.1986 13.6489 45.3096Z" fill="#E27022"/>
<path d="M62.7414 40.7765C63.521 42.7618 63.736 44.2419 63.3446 46.0394L62.0208 52.1205L64.3004 59.2609C64.3004 59.2609 64.4414 64.838 64.302 68.9407C64.2589 70.2116 63.1919 71.2502 61.9201 71.2501H61.5073C59.933 71.2501 59.2558 69.701 59.2558 68.1268L58.2593 58.3152C58.2593 58.3152 49.5008 51.9233 50.708 42.4085" stroke="black" stroke-width="2" stroke-linecap="round" stroke-linejoin="round"/>
<path d="M33.334 53.151C37.8161 52.9111 46.4699 53.151 50.8546 50.0087" stroke="black" stroke-width="2" stroke-linecap="round" stroke-linejoin="round"/>
<path d="M54.5102 14.2735C61.2454 16.0809 63.9514 19.2898 64.6235 22.6976C65.8386 28.8584 59.9325 34.1539 53.8385 32.639C50.8853 31.905 48.4029 32.1212 48.4029 32.1212L26.8863 31.9584C24.9132 22.4582 19.3478 20.7745 19.3478 20.7745C18.499 15.3202 15.5332 14.442 14.6001 14.3006C14.4439 14.277 14.301 14.3829 14.2784 14.5393L13.6527 18.8683C13.561 19.5021 13.0712 20.0047 12.4399 20.1125L11.7501 20.2304C10.8569 20.3829 10.0281 20.7942 9.36642 21.4133L8.32111 22.3912C7.95561 22.7333 7.48873 22.9471 6.99098 23.0007L2.94748 23.4356C2.05733 23.5314 1.80267 25.9189 2.14865 26.7447L2.88597 27.741C3.22459 28.5493 3.94567 29.1343 4.80647 29.2991L12.3681 30.1559C12.3681 30.1559 11.1989 45.551 15.5592 47.8895C25.0663 52.9883 20.7122 67.2074 20.7122 67.2074C19.7515 68.8867 20.4938 71.2502 22.4286 71.2502H22.4303C23.3586 71.2502 24.2117 70.7396 24.6504 69.9215L27.1056 63.5283L28.716 52.8357C28.8424 51.9964 28.6734 51.1488 28.2889 50.3922C27.6154 49.0671 26.8227 46.4627 28.1287 42.7619" stroke="black" stroke-width="2" stroke-linecap="round" stroke-linejoin="round"/>
<path d="M13.1295 45.9023L8.0415 53.6836C7.66593 54.2328 7.45173 54.888 7.43442 55.5763C7.38298 57.6287 7.13661 62.0556 10.9411 64.5678C11.9402 65.2275 13.8226 65.3149 14.8161 64.6981C15.6551 64.1772 16.3394 63.1885 15.721 61.3173" stroke="black" stroke-width="2" stroke-linecap="round" stroke-linejoin="round"/>
<path d="M18.1552 51.9077L13 55.5087" stroke="black" stroke-width="2" stroke-linecap="round" stroke-linejoin="round"/>
<path d="M48.4199 55.5087C48.9261 57.3408 52.0179 59.02 53.3892 59.8742C53.3892 59.8742 52.2952 66.1206 52.1384 68.226C52.0818 68.9866 52.3569 69.7238 52.8289 70.2513C54.0713 71.6398 55.6703 71.0292 55.6703 71.0292" stroke="black" stroke-width="2" stroke-linecap="round" stroke-linejoin="round"/>
</g>
<defs>
<clipPath id="clip0_2712_6694">
<rect width="72" height="72" fill="white"/>
</clipPath>
</defs>
</svg>
