<svg width="72" height="72" viewBox="0 0 72 72" fill="none" xmlns="http://www.w3.org/2000/svg">
<path d="M63.2787 43.521C63.2787 57.741 52.2722 69.385 38.3125 70.3998C58.413 58.6647 60.8329 38.2128 44.3231 18.984C44.258 18.906 44.1929 18.8279 44.1279 18.7499C39.8736 13.8321 46.0013 6 46.0013 6H48.5903C50.9061 6 52.8056 7.89947 52.8056 10.2153V10.2413C52.8056 11.2042 52.4673 12.1018 51.9079 12.8173C51.4785 13.3897 50.8931 13.8321 50.2296 14.1183C50.2166 14.1183 50.2166 14.1183 50.2166 14.1183C48.6944 15.6274 47.3544 18.1904 51.2574 21.0787C51.2964 21.1047 51.3614 21.1567 51.4005 21.1827C51.5436 21.2738 51.7127 21.3779 51.8558 21.495C53.7683 22.835 55.4986 24.4352 56.9948 26.2306C58.3609 27.8569 59.5578 29.6523 60.4945 31.6038C60.5465 31.6818 60.5856 31.7729 60.6376 31.877C60.8328 32.3063 61.0149 32.7226 61.184 33.152C61.3141 33.5032 61.4572 33.8545 61.5743 34.1928C61.7174 34.5571 61.8215 34.9083 61.9256 35.2466C61.9256 35.2596 61.9386 35.2726 61.9386 35.2856C62.0297 35.6109 62.1338 35.9491 62.2248 36.2744C62.2379 36.3264 62.2639 36.3915 62.2769 36.4435C62.3159 36.5996 62.3549 36.7297 62.381 36.8859C62.446 37.081 62.4981 37.2892 62.5371 37.4973C62.5761 37.7055 62.628 37.8876 62.6672 38.0958C62.7062 38.2519 62.7452 38.4341 62.7843 38.6032C62.7843 38.6161 62.7843 38.6552 62.7972 38.6682C62.8622 39.0455 62.9273 39.3968 62.9793 39.7351C63.0443 40.2034 63.0964 40.6328 63.1484 41.0231C63.1744 41.2963 63.2005 41.5565 63.2135 41.7776C63.2917 42.8705 63.2787 43.521 63.2787 43.521Z" fill="#6A462F" stroke="#6A462F" stroke-width="2" stroke-miterlimit="10" stroke-linecap="round" stroke-linejoin="round"/>
<path d="M38.3126 70.3998C38.0914 70.4258 37.8703 70.4388 37.6621 70.4388C37.2198 70.4649 36.7644 70.4779 36.3221 70.4779C21.4386 70.4779 9.36523 58.4045 9.36523 43.521C9.36523 43.521 9.36523 43.456 9.36523 43.3519C9.36523 42.9876 9.37812 42.6364 9.40427 42.2721C9.40427 42.116 9.41727 41.9598 9.43028 41.7778C9.44329 41.5567 9.46932 41.2963 9.49534 41.0232C9.53437 40.685 9.58641 40.3077 9.65146 39.9044C9.67748 39.7092 9.71651 39.5011 9.74253 39.2799C9.9637 38.0439 10.2889 36.5738 10.7833 34.9996C10.8614 34.7524 10.9525 34.4792 11.0565 34.206C11.3298 33.4514 11.642 32.6708 12.0063 31.8772C12.0453 31.7731 12.0973 31.682 12.1494 31.604C13.0211 29.7435 15.6491 26.2308 15.6491 26.2308C17.1452 24.4354 18.8756 22.8352 20.7881 21.4952C20.9312 21.3781 21.1003 21.274 21.2434 21.1829C21.2824 21.1569 21.3475 21.1049 21.3865 21.0788C25.2245 18.2296 23.9885 15.6927 22.4924 14.1835C21.7248 13.8973 21.0613 13.3899 20.5929 12.7394C20.5669 12.7264 20.5539 12.7134 20.5539 12.7134C20.0465 12.0108 19.7473 11.1652 19.7473 10.2415V10.2154C19.7473 7.89965 21.6337 6.00018 23.9625 6.00018H46.0015C46.0015 6.00018 39.8738 13.8322 44.1281 18.75C44.1931 18.8281 44.2582 18.9062 44.3232 18.9842C60.833 38.2129 58.4131 58.6647 38.3126 70.3998Z" fill="#A57939" stroke="#A57939" stroke-width="2" stroke-miterlimit="10" stroke-linecap="round" stroke-linejoin="round"/>
<path d="M10.9336 36.728C11.0524 36.1315 11.1922 35.543 11.356 34.9658C11.1892 35.5805 11.0511 36.1689 10.9336 36.728Z" fill="black"/>
<path d="M11.7119 33.7505C11.5752 34.1491 11.4707 34.5595 11.3555 34.9658C11.4632 34.5686 11.58 34.1639 11.7119 33.7505Z" fill="black"/>
<path d="M10.71 37.8747C10.7728 37.5133 10.8492 37.1262 10.9328 36.728C10.8568 37.1093 10.7667 37.4841 10.71 37.8747Z" fill="black"/>
<path d="M10.3857 40.7499C10.3597 41.1012 10.3467 41.4395 10.3467 41.7907C10.3467 41.5956 10.3467 41.2443 10.3857 40.7499Z" fill="black"/>
<path d="M44.5919 17.232H27.8965" stroke="black" stroke-width="2" stroke-miterlimit="10" stroke-linecap="round"/>
<path d="M63.2769 43.5239C63.2769 58.4032 51.2061 70.4739 36.3269 70.4739C21.4341 70.4739 9.36328 58.4031 9.36328 43.5239C9.36328 43.5239 9.36328 43.4564 9.36328 43.3484C9.36328 42.9838 9.37681 42.6328 9.40374 42.2683C9.40374 42.1198 9.41727 41.9577 9.4308 41.7822C9.44433 41.5527 9.47139 41.2962 9.49833 41.0261C9.53892 40.6885 9.57938 40.3104 9.64677 39.9054C9.67383 39.703 9.71429 39.5004 9.74135 39.2843C9.95745 38.0421 10.2815 36.5704 10.781 35.0041C10.862 34.7476 10.9565 34.4776 11.0511 34.2075C11.3346 33.4514 11.6451 32.6683 12.0097 31.8716C12.0502 31.7771 12.0907 31.6827 12.1447 31.6016C13.0222 29.7383 15.6417 26.2277 15.6417 26.2277C17.1404 24.4319 18.8687 22.8387 20.786 21.4885C20.9346 21.3805 21.0965 21.2725 21.2451 21.178C21.2857 21.1509 21.3397 21.1104 21.3801 21.0834C25.2283 18.2344 23.9861 15.696 22.4873 14.1839C21.7176 13.9003 21.0561 13.3873 20.5971 12.7391C20.57 12.7256 20.5565 12.712 20.5565 12.712C20.0434 12.01 19.7463 11.1594 19.7463 10.2412V10.2141C19.7463 7.90523 21.6366 6.00146 23.959 6.00146H48.5868C50.9092 6.00146 52.7994 7.90523 52.7994 10.2141V10.2412C52.7994 11.1998 52.4618 12.1045 51.9084 12.82C51.4763 13.3871 50.8957 13.8327 50.2341 14.1162C50.2206 14.1162 50.2206 14.1162 50.2206 14.1162C48.6949 15.6284 47.3581 18.1938 51.2602 21.0832C51.3008 21.1103 51.3548 21.1508 51.3952 21.1778C51.5437 21.2724 51.7058 21.3804 51.8542 21.4884C53.7715 22.8386 55.4998 24.4319 56.9985 26.2275C58.3623 27.8613 59.5505 29.6571 60.4956 31.6015C60.5496 31.6825 60.5902 31.777 60.6307 31.8714C60.8333 32.3035 61.0088 32.722 61.1843 33.1541C61.3193 33.5051 61.4544 33.8562 61.5757 34.1937C61.7108 34.5583 61.8188 34.9093 61.9267 35.2469C61.9267 35.2604 61.9403 35.2739 61.9403 35.2875C62.0349 35.6116 62.1293 35.949 62.2238 36.2731C62.2373 36.3271 62.2644 36.3946 62.2779 36.4486C62.3184 36.5971 62.3589 36.7322 62.3859 36.8807C62.4399 37.0833 62.4939 37.2857 62.5343 37.5018C62.5748 37.7042 62.6289 37.8933 62.6694 38.0958C62.71 38.2578 62.7504 38.4334 62.7773 38.6089C62.7773 38.6223 62.7773 38.6494 62.7909 38.6629C62.8584 39.041 62.9259 39.392 62.9798 39.7296C63.0473 40.2023 63.1013 40.6344 63.1419 41.0258C63.1688 41.2959 63.1959 41.5525 63.2094 41.782C63.2905 42.8759 63.2769 43.5239 63.2769 43.5239Z" stroke="black" stroke-width="2" stroke-miterlimit="10" stroke-linecap="round" stroke-linejoin="round"/>
<path d="M40.4711 38.7296C40.1179 37.355 38.5904 36.3209 36.7595 36.3209C34.6671 36.3209 32.9707 37.6715 32.9707 39.3377C32.9707 41.0039 34.667 42.3545 36.7594 42.3545L36.6825 42.3657C38.7749 42.3657 40.4711 43.7162 40.4711 45.3824C40.4711 47.0486 38.7749 48.3992 36.6825 48.3992C34.8516 48.3992 33.3239 47.3653 32.9707 45.9905" stroke="black" stroke-width="2" stroke-miterlimit="10" stroke-linecap="round" stroke-linejoin="round"/>
<path d="M36.7217 36.3207V33.4447" stroke="black" stroke-width="2" stroke-miterlimit="10" stroke-linecap="round" stroke-linejoin="round"/>
<path d="M36.7217 51.275V48.3989" stroke="black" stroke-width="2" stroke-miterlimit="10" stroke-linecap="round" stroke-linejoin="round"/>
<path d="M18.1068 17.4489C18.1068 17.4489 10.3008 17.4489 10.3008 25.2549" stroke="black" stroke-width="2" stroke-miterlimit="10" stroke-linecap="round" stroke-linejoin="round"/>
<path d="M11.602 14.8469C11.602 14.8469 9 14.8469 9 12.2449" stroke="black" stroke-width="2" stroke-miterlimit="10" stroke-linecap="round" stroke-linejoin="round"/>
</svg>
