<svg width="72" height="72" viewBox="0 0 72 72" fill="none" xmlns="http://www.w3.org/2000/svg">
<g clip-path="url(#clip0_2713_6757)">
<path d="M18.6417 7.75378L20.6955 16.5846L14.1238 23.1563L3.85547 40.8178L5.08767 46.5681L7.75748 48.211L12.6863 48.0056L16.999 43.8983L25.419 41.6393C25.419 41.6393 27.0619 43.4876 28.0888 45.3359C29.1157 47.1842 32.6069 50.4701 32.6069 50.4701L33.223 57.8633L30.964 65.4619L28.4996 68.9531C28.4996 68.9531 55.608 80.659 69.3676 60.3277L68.7515 52.9345L66.4925 46.7735L62.3852 40.4071L61.153 38.5588L60.9476 32.1924L57.4564 25.6207L51.2954 21.9241L48.0095 16.3792L41.6431 11.245L33.6338 9.39668L26.6513 10.6289L21.5171 7.95907L18.6417 7.75378Z" fill="white"/>
<path d="M51.8084 21.0532L58.226 26.099C58.226 26.099 65.0817 36.2254 57.8246 48.057C55.8305 52.3393 54.9731 56.3648 55.683 60.0359L49.1387 54.5937V34.7758L51.8084 21.0532Z" fill="#EA5A47"/>
<path d="M21.2834 16.2676L2.66016 7.33411L9.02607 14.8736L15.4627 22.0882L21.2834 16.2676Z" fill="#EA5A47"/>
<path d="M26.0127 9.31787L39.2807 9.4857C39.2807 9.4857 50.6634 14.4959 52.2625 24.0455L53.1095 35.0819C49.8643 43.1388 49.3437 52.4889 55.6827 60.7531C55.6827 60.7531 46.8794 62.3815 43.4908 51.9929L41.5397 46.1223L41.9411 38.6871L43.687 31.7343L43.3379 25.7053L40.5333 20.3915L36.1809 16.8905L29.044 14.3274L26.0127 9.31787Z" fill="#92D3F5"/>
<path d="M61.3992 37.805C61.3992 37.805 68.2 45.6992 70.0224 56.435C70.2489 57.769 70.1766 59.1372 69.8527 60.4509C69.3208 62.6087 68.8449 66.6093 70.0317 69.5476C70.6094 70.9783 69.339 72.4624 67.8281 72.1494C63.2574 71.2023 56.438 67.655 55.1898 62.1838C55.1604 62.0548 55.1445 61.9204 55.1384 61.7883L54.8107 54.7082C54.7944 54.3562 54.8742 54.0065 55.0417 53.6964L59.591 45.2732C59.6731 45.1213 59.7344 44.9591 59.7736 44.791L61.3992 37.805Z" fill="#61B2E4"/>
<path d="M61.3984 39.0774C63.577 41.9875 69.4633 47.3111 68.8472 59.0861" stroke="black" stroke-width="2" stroke-miterlimit="10" stroke-linecap="round" stroke-linejoin="round"/>
<path d="M29.416 44.1328C29.416 44.1328 39.863 52.49 29.416 67.2547" stroke="black" stroke-width="2" stroke-miterlimit="10" stroke-linecap="round" stroke-linejoin="round"/>
<path d="M19.9396 16.0983L2 7L15.4614 22.0883" stroke="black" stroke-width="2" stroke-miterlimit="10" stroke-linecap="round" stroke-linejoin="round"/>
<path d="M32.7389 30.5592C33.4152 40.8549 21.2517 42.5152 18.0092 43.2936C17.5995 43.392 17.2307 43.6017 16.9327 43.8997L14.1939 46.6386C13.7634 47.0691 13.1793 47.3111 12.5703 47.3111H8.24274C6.7604 47.3111 5.44429 46.3625 4.97556 44.9562L4.32126 42.9932C4.00335 42.0395 4.11807 40.9943 4.63535 40.1323L15.4617 22.0884L21.2824 16.2678L18.6761 7.75893C18.6761 7.75893 28.2905 6.89799 29.0433 14.3275C29.0433 14.3275 49.9021 17.3363 42.0468 38.2113C42.0468 38.2113 40.0445 45.5415 44.9733 51.993" stroke="black" stroke-width="2" stroke-miterlimit="10" stroke-linecap="round" stroke-linejoin="round"/>
<path d="M27.4658 9.79807C27.4658 9.79807 54.8754 4.84364 52.0584 34.3907" stroke="black" stroke-width="2" stroke-miterlimit="10" stroke-linecap="round" stroke-linejoin="round"/>
<path d="M50.8799 21.0533C50.8799 21.0533 69.0752 29.1692 57.6031 48.4328C57.6031 48.4328 50.9801 56.5191 58.3733 65.1959" stroke="black" stroke-width="2" stroke-miterlimit="10" stroke-linecap="round" stroke-linejoin="round"/>
<path d="M19.4566 30.6341C20.8176 30.6341 21.921 29.5308 21.921 28.1697C21.921 26.8087 20.8176 25.7053 19.4566 25.7053C18.0955 25.7053 16.9922 26.8087 16.9922 28.1697C16.9922 29.5308 18.0955 30.6341 19.4566 30.6341Z" fill="black"/>
</g>
<defs>
<clipPath id="clip0_2713_6757">
<rect width="72" height="72" fill="white"/>
</clipPath>
</defs>
</svg>
